<?xml version="1.0" standalone="no"?>
<!DOCTYPE svg PUBLIC "-//W3C//DTD SVG 20010904//EN"
 "http://www.w3.org/TR/2001/REC-SVG-20010904/DTD/svg10.dtd">
<svg version="1.0" xmlns="http://www.w3.org/2000/svg"
 width="360.000000pt" height="360.000000pt" viewBox="0 0 360.000000 360.000000"
 preserveAspectRatio="xMidYMid meet">
<metadata>
Created by potrace 1.11, written by Peter Selinger 2001-2013
</metadata>
<g transform="translate(0.000000,360.000000) scale(0.100000,-0.100000)"
fill="#000000" stroke="none">
<path d="M940 3117 c-39 -20 -70 -74 -70 -123 l0 -44 -180 0 -180 0 2 -1262 3
-1263 1264 -3 c926 -1 1267 1 1277 9 12 10 14 220 14 1253 0 682 -4 1247 -8
1253 -6 9 -60 13 -192 15 l-185 3 -6 50 c-8 67 -15 81 -54 105 -85 53 -175 -6
-175 -115 l0 -45 -670 0 -670 0 0 44 c0 72 -56 136 -120 136 -14 0 -36 -6 -50
-13z m100 -66 c5 -11 10 -71 10 -135 0 -126 -8 -146 -57 -146 -54 0 -63 21
-63 155 0 81 4 125 12 133 20 20 86 15 98 -7z m1574 -3 c12 -17 16 -49 16
-130 0 -95 -2 -110 -20 -128 -11 -11 -31 -20 -45 -20 -14 0 -34 9 -45 20 -18
18 -20 33 -20 128 0 127 11 152 65 152 24 0 39 -7 49 -22z m248 -496 c27 -27
33 -39 32 -77 0 -35 -6 -51 -29 -75 l-29 -30 -1133 0 -1133 0 0 104 c0 91 2
105 18 109 9 3 518 4 1129 3 l1113 -1 32 -33z m148 -1032 l0 -820 -1225 0
-1225 0 0 805 0 805 1150 0 c1014 0 1151 2 1156 15 5 11 23 15 75 15 l69 0 0
-820z m-2 -957 l3 -83 -1226 0 -1225 0 0 25 0 25 1190 0 c1123 0 1190 1 1198
18 23 43 62 42 -1194 42 l-1194 0 0 23 c0 13 2 26 4 28 2 2 553 4 1223 4
l1218 0 3 -82z"/>
<path d="M1326 2094 c-3 -8 -6 -87 -6 -174 0 -122 3 -160 14 -169 9 -8 73 -11
207 -9 l194 3 0 180 0 180 -201 3 c-177 2 -202 0 -208 -14z m364 -169 l0 -125
-155 0 -155 0 0 125 0 125 155 0 155 0 0 -125z"/>
<path d="M1837 2104 c-4 -4 -7 -85 -7 -180 0 -147 2 -173 16 -178 9 -3 98 -6
199 -6 143 0 185 3 194 14 8 9 11 66 9 182 l-3 169 -201 3 c-110 1 -203 -1
-207 -4z m353 -179 l0 -125 -149 0 -150 0 -3 125 -3 125 153 0 152 0 0 -125z"/>
<path d="M2342 2098 c-8 -8 -12 -61 -12 -173 0 -112 4 -165 12 -173 17 -17
389 -17 406 0 17 17 17 329 0 346 -8 8 -68 12 -203 12 -135 0 -195 -4 -203
-12z m358 -173 l0 -125 -155 0 -155 0 0 125 0 125 155 0 155 0 0 -125z"/>
<path d="M824 1647 c-2 -7 -3 -89 -2 -182 l3 -170 194 -3 c134 -2 198 1 207 9
19 15 20 329 2 347 -18 18 -397 17 -404 -1z m356 -172 l0 -125 -155 0 -155 0
0 125 0 125 155 0 155 0 0 -125z"/>
<path d="M1326 1644 c-3 -8 -6 -87 -6 -174 0 -122 3 -160 14 -169 9 -8 73 -11
207 -9 l194 3 0 180 0 180 -201 3 c-177 2 -202 0 -208 -14z m364 -169 l0 -125
-155 0 -155 0 0 125 0 125 155 0 155 0 0 -125z"/>
<path d="M1837 1654 c-4 -4 -7 -85 -7 -180 0 -147 2 -173 16 -178 9 -3 98 -6
199 -6 143 0 185 3 194 14 8 9 11 66 9 182 l-3 169 -201 3 c-110 1 -203 -1
-207 -4z m353 -179 l0 -125 -149 0 -150 0 -3 125 -3 125 153 0 152 0 0 -125z"/>
<path d="M2342 1648 c-8 -8 -12 -61 -12 -173 0 -112 4 -165 12 -173 17 -17
389 -17 406 0 17 17 17 329 0 346 -8 8 -68 12 -203 12 -135 0 -195 -4 -203
-12z m358 -173 l0 -125 -155 0 -155 0 0 125 0 125 155 0 155 0 0 -125z"/>
<path d="M824 1197 c-2 -7 -3 -89 -2 -182 l3 -170 194 -3 c134 -2 198 1 207 9
19 15 20 329 2 347 -18 18 -397 17 -404 -1z m356 -172 l0 -125 -155 0 -155 0
0 125 0 125 155 0 155 0 0 -125z"/>
<path d="M1326 1194 c-3 -8 -6 -87 -6 -174 0 -122 3 -160 14 -169 9 -8 73 -11
207 -9 l194 3 0 180 0 180 -201 3 c-177 2 -202 0 -208 -14z m364 -169 l0 -125
-155 0 -155 0 0 125 0 125 155 0 155 0 0 -125z"/>
<path d="M1837 1204 c-4 -4 -7 -85 -7 -180 0 -147 2 -173 16 -178 9 -3 98 -6
199 -6 143 0 185 3 194 14 8 9 11 66 9 182 l-3 169 -201 3 c-110 1 -203 -1
-207 -4z m353 -179 l0 -125 -149 0 -150 0 -3 125 -3 125 153 0 152 0 0 -125z"/>
</g>
</svg>
